<svg xmlns="http://www.w3.org/2000/svg" width="1600" height="1100" viewBox="0 0 1600 1100" role="img" aria-labelledby="title desc"><title id="title">Centrala wentylacyjna — punkty przeglądu</title><desc id="desc">Schemat poglądowy sekcji nawiewnej centrali. Filtr, wymiennik, wentylator, automatyka i odpływ skroplin. Strzałki pokazują kierunek przepływu. Układ zależy od modelu.</desc><defs><pattern id="grid" width="50" height="50" patternUnits="userSpaceOnUse"><path d="M50 0H0V50" fill="none" stroke="#273641" stroke-width="1"/></pattern><linearGradient id="metal" x2="0" y2="1"><stop stop-color="#465766"/><stop offset="1" stop-color="#202c35"/></linearGradient><linearGradient id="glass" x2="0" y2="1"><stop stop-color="#1f3543" stop-opacity=".8"/><stop offset="1" stop-color="#0f1c25" stop-opacity=".95"/></linearGradient><marker id="arrow" markerWidth="9" markerHeight="9" refX="7" refY="4" orient="auto"><path d="M0 0L8 4 0 8" fill="none" stroke="#6dd8e8" stroke-width="1.5"/></marker><marker id="redarrow" markerWidth="9" markerHeight="9" refX="7" refY="4" orient="auto"><path d="M0 0L8 4 0 8" fill="none" stroke="#fa775f" stroke-width="1.5"/></marker></defs><rect width="1600" height="1100" fill="#131b22"/><rect width="1600" height="1100" fill="url(#grid)" opacity=".45"/><g font-family="Arial,sans-serif"><text x="65" y="75" fill="#6dd8e8" font-size="22" letter-spacing="5">NURTEX / DOKUMENTACJA TECHNICZNA</text><text x="65" y="120" fill="#dce5e9" font-size="34">Centrala wentylacyjna — punkty przeglądu</text><ellipse cx="840" cy="818" rx="570" ry="70" fill="#080e14" opacity=".8"/><path d="M230 375L390 275H1320L1160 375Z" fill="#344550" stroke="#8296a3" stroke-width="2"/><path d="M1160 375L1320 275V665L1160 765Z" fill="url(#metal)" stroke="#8296a3" stroke-width="2"/><path d="M230 375H1160V765H230Z" fill="url(#glass)" stroke="#9daeb8" stroke-width="3"/><path d="M230 765H1160V796H230Z" fill="#344753" stroke="#8296a3" stroke-width="2"/><path d="M300 796V826H345V796M1035 796V826H1080V796" fill="#526575"/><path d="M340 385V750M555 385V750M810 385V750M1050 385V750" stroke="#708492" stroke-width="4"/><path d="M90 510H230V650H90M1160 510H1420V650H1160" fill="#223643" stroke="#8195a3" stroke-width="3"/>
<path d="M365 433H507V695H365Z" fill="#3d575f" stroke="#b9d2d5" stroke-width="3"/><path d="M376 443l10 28 -10 28 10 28 -10 28 10 28 -10 28 10 28 -10 28" fill="none" stroke="#87b7bd" stroke-width="3"/><path d="M390 443l10 28 -10 28 10 28 -10 28 10 28 -10 28 10 28 -10 28" fill="none" stroke="#87b7bd" stroke-width="3"/><path d="M404 443l10 28 -10 28 10 28 -10 28 10 28 -10 28 10 28 -10 28" fill="none" stroke="#87b7bd" stroke-width="3"/><path d="M418 443l10 28 -10 28 10 28 -10 28 10 28 -10 28 10 28 -10 28" fill="none" stroke="#87b7bd" stroke-width="3"/><path d="M432 443l10 28 -10 28 10 28 -10 28 10 28 -10 28 10 28 -10 28" fill="none" stroke="#87b7bd" stroke-width="3"/><path d="M446 443l10 28 -10 28 10 28 -10 28 10 28 -10 28 10 28 -10 28" fill="none" stroke="#87b7bd" stroke-width="3"/><path d="M460 443l10 28 -10 28 10 28 -10 28 10 28 -10 28 10 28 -10 28" fill="none" stroke="#87b7bd" stroke-width="3"/><path d="M474 443l10 28 -10 28 10 28 -10 28 10 28 -10 28 10 28 -10 28" fill="none" stroke="#87b7bd" stroke-width="3"/><path d="M488 443l10 28 -10 28 10 28 -10 28 10 28 -10 28 10 28 -10 28" fill="none" stroke="#87b7bd" stroke-width="3"/><rect x="588" y="433" width="180" height="262" rx="3" fill="#283d4b" stroke="#9eafba" stroke-width="3"/><path d="M600 447V681" stroke="#748e9e" stroke-width="3"/><path d="M611 447V681" stroke="#748e9e" stroke-width="3"/><path d="M622 447V681" stroke="#748e9e" stroke-width="3"/><path d="M633 447V681" stroke="#748e9e" stroke-width="3"/><path d="M644 447V681" stroke="#748e9e" stroke-width="3"/><path d="M655 447V681" stroke="#748e9e" stroke-width="3"/><path d="M666 447V681" stroke="#748e9e" stroke-width="3"/><path d="M677 447V681" stroke="#748e9e" stroke-width="3"/><path d="M688 447V681" stroke="#748e9e" stroke-width="3"/><path d="M699 447V681" stroke="#748e9e" stroke-width="3"/><path d="M710 447V681" stroke="#748e9e" stroke-width="3"/><path d="M721 447V681" stroke="#748e9e" stroke-width="3"/><path d="M732 447V681" stroke="#748e9e" stroke-width="3"/><path d="M743 447V681" stroke="#748e9e" stroke-width="3"/><path d="M754 447V681" stroke="#748e9e" stroke-width="3"/><circle cx="928" cy="566" r="92" fill="#192b37" stroke="#8fa8b6" stroke-width="5"/><circle cx="928" cy="566" r="70" fill="none" stroke="#5a7587" stroke-width="2"/><path d="M928 552C954 501 1000 503 996 546Q962 564 941 571Z" transform="rotate(0 928 566)" fill="#829baa" stroke="#b3c2cb" stroke-width="2"/><path d="M928 552C954 501 1000 503 996 546Q962 564 941 571Z" transform="rotate(60 928 566)" fill="#829baa" stroke="#b3c2cb" stroke-width="2"/><path d="M928 552C954 501 1000 503 996 546Q962 564 941 571Z" transform="rotate(120 928 566)" fill="#829baa" stroke="#b3c2cb" stroke-width="2"/><path d="M928 552C954 501 1000 503 996 546Q962 564 941 571Z" transform="rotate(180 928 566)" fill="#829baa" stroke="#b3c2cb" stroke-width="2"/><path d="M928 552C954 501 1000 503 996 546Q962 564 941 571Z" transform="rotate(240 928 566)" fill="#829baa" stroke="#b3c2cb" stroke-width="2"/><path d="M928 552C954 501 1000 503 996 546Q962 564 941 571Z" transform="rotate(300 928 566)" fill="#829baa" stroke="#b3c2cb" stroke-width="2"/><circle cx="928" cy="566" r="23" fill="#243b4b" stroke="#c4d7df" stroke-width="4"/><path d="M575 720H784V740H575Z" fill="#587885"/><path d="M678 740V845H735V881" fill="none" stroke="#6dd8e8" stroke-width="8"/><rect x="1080" y="415" width="60" height="100" rx="5" fill="#273e4b" stroke="#88a4b5" stroke-width="2"/><rect x="1090" y="429" width="40" height="32" fill="#16353b"/><path d="M1097 446H1105L1110 438 1115 450 1125 442" stroke="#6dd8e8" fill="none" stroke-width="2"/><circle cx="1096" cy="486" r="5" fill="#fa775f"/><circle cx="1123" cy="486" r="5" fill="#a1d8a2"/><path d="M1110 515V704H930V660" fill="none" stroke="#c39364" stroke-width="2" stroke-dasharray="8 7"/>
<path d="M95 580H330M525 580H570M784 580H830M1035 580H1430" stroke="#6dd8e8" stroke-width="6" fill="none" marker-end="url(#arrow)"/>
<path d="M275 349H1120M1210 387V705" stroke="#c7d5db" stroke-width="2" stroke-dasharray="10 12" opacity=".4"/><path d="M292 244V420H437" fill="none" stroke="#7896a8" stroke-width="2"/><circle cx="270" cy="227" r="24" fill="#203b47" stroke="#6dd8e8" stroke-width="2"/><text x="270" y="236" text-anchor="middle" fill="#9ee7ef" font-size="25">01</text><text x="308" y="237" fill="#e6ecef" font-size="27">FILTR</text><path d="M602 202V419H670" fill="none" stroke="#7896a8" stroke-width="2"/><circle cx="580" cy="185" r="24" fill="#203b47" stroke="#6dd8e8" stroke-width="2"/><text x="580" y="194" text-anchor="middle" fill="#9ee7ef" font-size="25">02</text><text x="618" y="195" fill="#e6ecef" font-size="27">WYMIENNIK</text><path d="M962 244V455H928" fill="none" stroke="#7896a8" stroke-width="2"/><circle cx="940" cy="227" r="24" fill="#203b47" stroke="#6dd8e8" stroke-width="2"/><text x="940" y="236" text-anchor="middle" fill="#9ee7ef" font-size="25">03</text><text x="978" y="237" fill="#e6ecef" font-size="27">WENTYLATOR</text><path d="M1172 897V550H1110" fill="none" stroke="#7896a8" stroke-width="2"/><circle cx="1150" cy="880" r="24" fill="#203b47" stroke="#6dd8e8" stroke-width="2"/><text x="1150" y="889" text-anchor="middle" fill="#9ee7ef" font-size="25">04</text><text x="1188" y="890" fill="#e6ecef" font-size="27">STEROWANIE</text><path d="M437 947V846H678" fill="none" stroke="#7896a8" stroke-width="2"/><circle cx="415" cy="930" r="24" fill="#203b47" stroke="#6dd8e8" stroke-width="2"/><text x="415" y="939" text-anchor="middle" fill="#9ee7ef" font-size="25">05</text><text x="453" y="940" fill="#e6ecef" font-size="27">SKROPLINY</text><text x="78" y="690" fill="#6dd8e8" font-size="25">WLOT</text><text x="1340" y="690" fill="#6dd8e8" font-size="25">NAWIEW</text><path d="M65 1005H1535" stroke="#415462"/><text x="65" y="1050" fill="#94a6b1" font-size="21">SCHEMAT POGLĄDOWY SEKCJI NAWIEWNEJ · UKŁAD ZALEŻY OD MODELU CENTRALI</text></g></svg>